<?xml version="1.0" encoding="UTF-8"?>
<svg xmlns="http://www.w3.org/2000/svg" xmlns:xlink="http://www.w3.org/1999/xlink" width="40px" height="42px" viewBox="0 0 40 42" version="1.1">
<g id="surface1">
<path style=" stroke:none;fill-rule:nonzero;fill:rgb(67.058825%,68.235296%,27.450982%);fill-opacity:1;" d="M 27.199219 20.5 C 27.199219 16.523438 23.976562 13.300781 20 13.300781 C 16.023438 13.300781 12.800781 16.523438 12.800781 20.5 C 12.800781 24.476562 16.023438 27.699219 20 27.699219 C 23.976562 27.699219 27.199219 24.476562 27.199219 20.5 Z M 27.199219 20.5 "/>
<path style=" stroke:none;fill-rule:nonzero;fill:rgb(67.058825%,68.235296%,27.450982%);fill-opacity:1;" d="M 12.5 34.101562 C 12.5 30.785156 9.8125 28.101562 6.5 28.101562 C 3.1875 28.101562 0.5 30.785156 0.5 34.101562 C 0.5 37.414062 3.1875 40.101562 6.5 40.101562 C 9.8125 40.101562 12.5 37.414062 12.5 34.101562 Z M 12.5 34.101562 "/>
<path style="fill:none;stroke-width:2.0214;stroke-linecap:butt;stroke-linejoin:miter;stroke:rgb(67.058825%,68.235296%,27.450982%);stroke-opacity:1;stroke-miterlimit:10;" d="M 29.398438 36.5 C 29.398438 35.007812 28.191406 33.800781 26.699219 33.800781 C 25.207031 33.800781 24 35.007812 24 36.5 C 24 37.992188 25.207031 39.199219 26.699219 39.199219 C 28.191406 39.199219 29.398438 37.992188 29.398438 36.5 Z M 29.398438 36.5 "/>
<path style=" stroke:none;fill-rule:nonzero;fill:rgb(67.058825%,68.235296%,27.450982%);fill-opacity:1;" d="M 39.398438 26.699219 C 39.398438 24.765625 37.832031 23.199219 35.898438 23.199219 C 33.96875 23.199219 32.398438 24.765625 32.398438 26.699219 C 32.398438 28.632812 33.96875 30.199219 35.898438 30.199219 C 37.832031 30.199219 39.398438 28.632812 39.398438 26.699219 Z M 39.398438 26.699219 "/>
<path style="fill:none;stroke-width:2.0214;stroke-linecap:butt;stroke-linejoin:miter;stroke:rgb(67.058825%,68.235296%,27.450982%);stroke-opacity:1;stroke-miterlimit:10;" d="M 11.398438 10 C 11.398438 7.847656 9.652344 6.101562 7.5 6.101562 C 5.347656 6.101562 3.601562 7.847656 3.601562 10 C 3.601562 12.152344 5.347656 13.898438 7.5 13.898438 C 9.652344 13.898438 11.398438 12.152344 11.398438 10 Z M 11.398438 10 "/>
<path style="fill:none;stroke-width:2.0214;stroke-linecap:butt;stroke-linejoin:miter;stroke:rgb(67.058825%,68.235296%,27.450982%);stroke-opacity:1;stroke-miterlimit:10;" d="M 38.5 5.699219 C 38.5 3.546875 36.753906 1.800781 34.601562 1.800781 C 32.445312 1.800781 30.699219 3.546875 30.699219 5.699219 C 30.699219 7.855469 32.445312 9.601562 34.601562 9.601562 C 36.753906 9.601562 38.5 7.855469 38.5 5.699219 Z M 38.5 5.699219 "/>
<path style="fill:none;stroke-width:2.0214;stroke-linecap:butt;stroke-linejoin:miter;stroke:rgb(67.058825%,68.235296%,27.450982%);stroke-opacity:1;stroke-miterlimit:10;" d="M 24.300781 16.101562 L 32.101562 8.300781 M 25.800781 22.800781 L 33.5 25.800781 M 22.199219 26.199219 L 25.699219 34.199219 M 15.101562 16.300781 L 10.5 12.601562 M 15.5 25 L 10.101562 30.601562 "/>
</g>
</svg>
