<?xml version="1.0" encoding="UTF-8"?>
<svg xmlns="http://www.w3.org/2000/svg" xmlns:xlink="http://www.w3.org/1999/xlink" width="40px" height="42px" viewBox="0 0 40 42" version="1.1">
<g id="surface1">
<path style=" stroke:none;fill-rule:nonzero;fill:rgb(67.058825%,68.235296%,27.450982%);fill-opacity:1;" d="M 19.101562 6.398438 L 20.898438 6.398438 L 20.898438 17.199219 L 19.101562 17.199219 Z M 8.898438 11.3125 L 10.171875 10.039062 L 17.808594 17.675781 L 16.535156 18.949219 Z M 5.199219 20.300781 L 16 20.300781 L 16 22.101562 L 5.199219 22.101562 Z M 8.914062 30.96875 L 16.550781 23.332031 L 17.824219 24.605469 L 10.1875 32.242188 Z M 19.101562 25.199219 L 20.898438 25.199219 L 20.898438 36 L 19.101562 36 Z M 22.136719 24.65625 L 23.410156 23.382812 L 31.046875 31.019531 L 29.773438 32.292969 Z M 24 20.300781 L 34.800781 20.300781 L 34.800781 22.101562 L 24 22.101562 Z M 22.191406 17.800781 L 29.824219 10.160156 L 31.097656 11.433594 L 23.460938 19.070312 Z M 22.191406 17.800781 "/>
<path style=" stroke:none;fill-rule:nonzero;fill:rgb(67.058825%,68.235296%,27.450982%);fill-opacity:1;" d="M 25.199219 21.199219 C 25.199219 18.328125 22.871094 16 20 16 C 17.128906 16 14.800781 18.328125 14.800781 21.199219 C 14.800781 24.070312 17.128906 26.398438 20 26.398438 C 22.871094 26.398438 25.199219 24.070312 25.199219 21.199219 Z M 25.199219 21.199219 "/>
<path style=" stroke:none;fill-rule:nonzero;fill:rgb(67.058825%,68.235296%,27.450982%);fill-opacity:1;" d="M 23 4.601562 C 23 2.941406 21.65625 1.601562 20 1.601562 C 18.34375 1.601562 17 2.941406 17 4.601562 C 17 6.257812 18.34375 7.601562 20 7.601562 C 21.65625 7.601562 23 6.257812 23 4.601562 Z M 23 4.601562 "/>
<path style=" stroke:none;fill-rule:nonzero;fill:rgb(67.058825%,68.235296%,27.450982%);fill-opacity:1;" d="M 11.199219 9.398438 C 11.199219 7.742188 9.855469 6.398438 8.199219 6.398438 C 6.542969 6.398438 5.199219 7.742188 5.199219 9.398438 C 5.199219 11.058594 6.542969 12.398438 8.199219 12.398438 C 9.855469 12.398438 11.199219 11.058594 11.199219 9.398438 Z M 11.199219 9.398438 "/>
<path style=" stroke:none;fill-rule:nonzero;fill:rgb(67.058825%,68.235296%,27.450982%);fill-opacity:1;" d="M 6.398438 21.199219 C 6.398438 19.542969 5.058594 18.199219 3.398438 18.199219 C 1.742188 18.199219 0.398438 19.542969 0.398438 21.199219 C 0.398438 22.855469 1.742188 24.199219 3.398438 24.199219 C 5.058594 24.199219 6.398438 22.855469 6.398438 21.199219 Z M 6.398438 21.199219 "/>
<path style=" stroke:none;fill-rule:nonzero;fill:rgb(67.058825%,68.235296%,27.450982%);fill-opacity:1;" d="M 11.199219 33 C 11.199219 31.34375 9.855469 30 8.199219 30 C 6.542969 30 5.199219 31.34375 5.199219 33 C 5.199219 34.65625 6.542969 36 8.199219 36 C 9.855469 36 11.199219 34.65625 11.199219 33 Z M 11.199219 33 "/>
<path style=" stroke:none;fill-rule:nonzero;fill:rgb(67.058825%,68.235296%,27.450982%);fill-opacity:1;" d="M 23 37.800781 C 23 36.144531 21.65625 34.800781 20 34.800781 C 18.34375 34.800781 17 36.144531 17 37.800781 C 17 39.457031 18.34375 40.800781 20 40.800781 C 21.65625 40.800781 23 39.457031 23 37.800781 Z M 23 37.800781 "/>
<path style=" stroke:none;fill-rule:nonzero;fill:rgb(67.058825%,68.235296%,27.450982%);fill-opacity:1;" d="M 34.800781 33 C 34.800781 31.34375 33.457031 30 31.800781 30 C 30.144531 30 28.800781 31.34375 28.800781 33 C 28.800781 34.65625 30.144531 36 31.800781 36 C 33.457031 36 34.800781 34.65625 34.800781 33 Z M 34.800781 33 "/>
<path style=" stroke:none;fill-rule:nonzero;fill:rgb(67.058825%,68.235296%,27.450982%);fill-opacity:1;" d="M 39.601562 21.199219 C 39.601562 19.542969 38.257812 18.199219 36.601562 18.199219 C 34.941406 18.199219 33.601562 19.542969 33.601562 21.199219 C 33.601562 22.855469 34.941406 24.199219 36.601562 24.199219 C 38.257812 24.199219 39.601562 22.855469 39.601562 21.199219 Z M 39.601562 21.199219 "/>
<path style=" stroke:none;fill-rule:nonzero;fill:rgb(67.058825%,68.235296%,27.450982%);fill-opacity:1;" d="M 34.800781 9.398438 C 34.800781 7.742188 33.457031 6.398438 31.800781 6.398438 C 30.144531 6.398438 28.800781 7.742188 28.800781 9.398438 C 28.800781 11.058594 30.144531 12.398438 31.800781 12.398438 C 33.457031 12.398438 34.800781 11.058594 34.800781 9.398438 Z M 34.800781 9.398438 "/>
</g>
</svg>
