<?xml version="1.0" encoding="UTF-8"?>
<svg xmlns="http://www.w3.org/2000/svg" xmlns:xlink="http://www.w3.org/1999/xlink" width="40px" height="42px" viewBox="0 0 40 42" version="1.1">
<g id="surface1">
<path style="fill:none;stroke-width:1.95;stroke-linecap:round;stroke-linejoin:round;stroke:rgb(67.058825%,68.235296%,27.450982%);stroke-opacity:1;stroke-miterlimit:10;" d="M 3 24.800781 L 20.601562 20.101562 M 7.398438 7.601562 L 20.601562 20.101562 M 20 20.5 L 34 32.300781 M 22.300781 4.601562 L 20.601562 20.101562 M 19.898438 19.398438 L 16 38.699219 M 33.699219 11.5 L 20.601562 20.101562 "/>
<path style=" stroke:none;fill-rule:nonzero;fill:rgb(67.058825%,68.235296%,27.450982%);fill-opacity:1;" d="M 26.199219 20.101562 C 26.199219 16.511719 23.289062 13.601562 19.699219 13.601562 C 16.109375 13.601562 13.199219 16.511719 13.199219 20.101562 C 13.199219 23.691406 16.109375 26.601562 19.699219 26.601562 C 23.289062 26.601562 26.199219 23.691406 26.199219 20.101562 Z M 26.199219 20.101562 "/>
<path style=" stroke:none;fill-rule:nonzero;fill:rgb(67.058825%,68.235296%,27.450982%);fill-opacity:1;" d="M 39.800781 10.101562 C 39.800781 7.558594 37.742188 5.5 35.199219 5.5 C 32.660156 5.5 30.601562 7.558594 30.601562 10.101562 C 30.601562 12.640625 32.660156 14.699219 35.199219 14.699219 C 37.742188 14.699219 39.800781 12.640625 39.800781 10.101562 Z M 39.800781 10.101562 "/>
<path style=" stroke:none;fill-rule:nonzero;fill:rgb(67.058825%,68.235296%,27.450982%);fill-opacity:1;" d="M 10.5 6.800781 C 10.5 4.535156 8.664062 2.699219 6.398438 2.699219 C 4.136719 2.699219 2.300781 4.535156 2.300781 6.800781 C 2.300781 9.0625 4.136719 10.898438 6.398438 10.898438 C 8.664062 10.898438 10.5 9.0625 10.5 6.800781 Z M 10.5 6.800781 "/>
<path style=" stroke:none;fill-rule:nonzero;fill:rgb(67.058825%,68.235296%,27.450982%);fill-opacity:1;" d="M 19.601562 37.699219 C 19.601562 35.820312 18.078125 34.300781 16.199219 34.300781 C 14.320312 34.300781 12.800781 35.820312 12.800781 37.699219 C 12.800781 39.578125 14.320312 41.101562 16.199219 41.101562 C 18.078125 41.101562 19.601562 39.578125 19.601562 37.699219 Z M 19.601562 37.699219 "/>
<path style=" stroke:none;fill-rule:nonzero;fill:rgb(67.058825%,68.235296%,27.450982%);fill-opacity:1;" d="M 25.199219 3.800781 C 25.199219 2.253906 23.945312 1 22.398438 1 C 20.855469 1 19.601562 2.253906 19.601562 3.800781 C 19.601562 5.347656 20.855469 6.601562 22.398438 6.601562 C 23.945312 6.601562 25.199219 5.347656 25.199219 3.800781 Z M 25.199219 3.800781 "/>
<path style=" stroke:none;fill-rule:nonzero;fill:rgb(67.058825%,68.235296%,27.450982%);fill-opacity:1;" d="M 36.101562 30.699219 C 36.101562 28.878906 34.621094 27.398438 32.800781 27.398438 C 30.976562 27.398438 29.5 28.878906 29.5 30.699219 C 29.5 32.523438 30.976562 34 32.800781 34 C 34.621094 34 36.101562 32.523438 36.101562 30.699219 Z M 36.101562 30.699219 "/>
<path style=" stroke:none;fill-rule:nonzero;fill:rgb(67.058825%,68.235296%,27.450982%);fill-opacity:1;" d="M 5.300781 24.800781 C 5.300781 23.472656 4.226562 22.398438 2.898438 22.398438 C 1.574219 22.398438 0.5 23.472656 0.5 24.800781 C 0.5 26.125 1.574219 27.199219 2.898438 27.199219 C 4.226562 27.199219 5.300781 26.125 5.300781 24.800781 Z M 5.300781 24.800781 "/>
</g>
</svg>
