<?xml version="1.0" encoding="utf-8"?>
<!-- Generator: Adobe Illustrator 27.9.3, SVG Export Plug-In . SVG Version: 9.03 Build 53313)  -->
<svg version="1.1" id="圖層_1" xmlns="http://www.w3.org/2000/svg" xmlns:xlink="http://www.w3.org/1999/xlink" x="0px" y="0px"
	 viewBox="0 0 40 42" style="enable-background:new 0 0 40 42;" xml:space="preserve">
<style type="text/css">
	.st0{fill:#ABAE46;}
	.st1{fill:none;stroke:#ABAE46;stroke-width:2.0214;stroke-miterlimit:10;}
	.st2{fill:none;stroke:#ABAE46;stroke-width:1.95;stroke-linecap:round;stroke-linejoin:round;stroke-miterlimit:10;}
</style>
<circle class="st0" cx="-56.6" cy="20.5" r="7.2"/>
<circle class="st0" cx="-70.1" cy="34.1" r="6"/>
<circle class="st1" cx="-49.9" cy="36.5" r="2.7"/>
<circle class="st0" cx="-40.7" cy="26.7" r="3.5"/>
<circle class="st1" cx="-69.1" cy="10" r="3.9"/>
<circle class="st1" cx="-42" cy="5.7" r="3.9"/>
<line class="st1" x1="-52.2" y1="16.1" x2="-44.5" y2="8.3"/>
<line class="st1" x1="-50.8" y1="22.8" x2="-43.1" y2="25.8"/>
<line class="st1" x1="-54.4" y1="26.2" x2="-50.9" y2="34.2"/>
<line class="st1" x1="-61.5" y1="16.3" x2="-66.1" y2="12.6"/>
<line class="st1" x1="-61.1" y1="25" x2="-66.5" y2="30.6"/>
<g>
	<line class="st2" x1="3" y1="24.8" x2="20.6" y2="20.1"/>
	<line class="st2" x1="7.4" y1="7.6" x2="20.6" y2="20.1"/>
	<line class="st2" x1="20" y1="20.5" x2="34" y2="32.3"/>
	<line class="st2" x1="22.3" y1="4.6" x2="20.6" y2="20.1"/>
	<line class="st2" x1="19.9" y1="19.4" x2="16" y2="38.7"/>
	<line class="st2" x1="33.7" y1="11.5" x2="20.6" y2="20.1"/>
</g>
<circle class="st0" cx="19.7" cy="20.1" r="6.5"/>
<circle class="st0" cx="35.2" cy="10.1" r="4.6"/>
<circle class="st0" cx="6.4" cy="6.8" r="4.1"/>
<circle class="st0" cx="16.2" cy="37.7" r="3.4"/>
<circle class="st0" cx="22.4" cy="3.8" r="2.8"/>
<circle class="st0" cx="32.8" cy="30.7" r="3.3"/>
<circle class="st0" cx="2.9" cy="24.8" r="2.4"/>
</svg>
