<?xml version="1.0" encoding="UTF-8"?>
<svg xmlns="http://www.w3.org/2000/svg" xmlns:xlink="http://www.w3.org/1999/xlink" width="40px" height="42px" viewBox="0 0 40 42" version="1.1">
<g id="surface1">
<path style="fill:none;stroke-width:2.9787;stroke-linecap:round;stroke-linejoin:round;stroke:rgb(67.058825%,68.235296%,27.450982%);stroke-opacity:1;stroke-miterlimit:10;" d="M 3.199219 24.601562 L 20.699219 20 M 7.5 7.5 L 20.699219 20 M 20.101562 20.300781 L 34 32 M 22.300781 4.5 L 20.699219 20 M 20 19.300781 L 16.101562 38.398438 M 33.699219 11.398438 L 20.699219 20 "/>
<path style=" stroke:none;fill-rule:nonzero;fill:rgb(67.058825%,68.235296%,27.450982%);fill-opacity:1;" d="M 27.898438 20 C 27.898438 15.527344 24.273438 11.898438 19.800781 11.898438 C 15.328125 11.898438 11.699219 15.527344 11.699219 20 C 11.699219 24.472656 15.328125 28.101562 19.800781 28.101562 C 24.273438 28.101562 27.898438 24.472656 27.898438 20 Z M 27.898438 20 "/>
<path style=" stroke:none;fill-rule:nonzero;fill:rgb(67.058825%,68.235296%,27.450982%);fill-opacity:1;" d="M 39.898438 10.101562 C 39.898438 6.953125 37.347656 4.398438 34.199219 4.398438 C 31.050781 4.398438 28.5 6.953125 28.5 10.101562 C 28.5 13.246094 31.050781 15.800781 34.199219 15.800781 C 37.347656 15.800781 39.898438 13.246094 39.898438 10.101562 Z M 39.898438 10.101562 "/>
<path style=" stroke:none;fill-rule:nonzero;fill:rgb(67.058825%,68.235296%,27.450982%);fill-opacity:1;" d="M 11.601562 6.699219 C 11.601562 3.9375 9.363281 1.699219 6.601562 1.699219 C 3.839844 1.699219 1.601562 3.9375 1.601562 6.699219 C 1.601562 9.460938 3.839844 11.699219 6.601562 11.699219 C 9.363281 11.699219 11.601562 9.460938 11.601562 6.699219 Z M 11.601562 6.699219 "/>
<path style=" stroke:none;fill-rule:nonzero;fill:rgb(67.058825%,68.235296%,27.450982%);fill-opacity:1;" d="M 20.601562 37.5 C 20.601562 35.179688 18.71875 33.300781 16.398438 33.300781 C 14.082031 33.300781 12.199219 35.179688 12.199219 37.5 C 12.199219 39.820312 14.082031 41.699219 16.398438 41.699219 C 18.71875 41.699219 20.601562 39.820312 20.601562 37.5 Z M 20.601562 37.5 "/>
<path style=" stroke:none;fill-rule:nonzero;fill:rgb(67.058825%,68.235296%,27.450982%);fill-opacity:1;" d="M 26 3.800781 C 26 1.867188 24.433594 0.300781 22.5 0.300781 C 20.566406 0.300781 19 1.867188 19 3.800781 C 19 5.734375 20.566406 7.300781 22.5 7.300781 C 24.433594 7.300781 26 5.734375 26 3.800781 Z M 26 3.800781 "/>
<path style=" stroke:none;fill-rule:nonzero;fill:rgb(67.058825%,68.235296%,27.450982%);fill-opacity:1;" d="M 36.898438 30.5 C 36.898438 28.234375 35.0625 26.398438 32.800781 26.398438 C 30.535156 26.398438 28.699219 28.234375 28.699219 30.5 C 28.699219 32.765625 30.535156 34.601562 32.800781 34.601562 C 35.0625 34.601562 36.898438 32.765625 36.898438 30.5 Z M 36.898438 30.5 "/>
<path style=" stroke:none;fill-rule:nonzero;fill:rgb(67.058825%,68.235296%,27.450982%);fill-opacity:1;" d="M 6.398438 24.601562 C 6.398438 22.941406 5.058594 21.601562 3.398438 21.601562 C 1.742188 21.601562 0.398438 22.941406 0.398438 24.601562 C 0.398438 26.257812 1.742188 27.601562 3.398438 27.601562 C 5.058594 27.601562 6.398438 26.257812 6.398438 24.601562 Z M 6.398438 24.601562 "/>
</g>
</svg>
