<?xml version="1.0" encoding="UTF-8"?>
<svg xmlns="http://www.w3.org/2000/svg" xmlns:xlink="http://www.w3.org/1999/xlink" width="50px" height="52px" viewBox="0 0 50 52" version="1.1">
<g id="surface1">
<path style="fill-rule:nonzero;fill:rgb(67.058825%,68.235296%,27.450982%);fill-opacity:1;stroke-width:1;stroke-linecap:butt;stroke-linejoin:miter;stroke:rgb(67.058825%,68.235296%,27.450982%);stroke-opacity:1;stroke-miterlimit:10;" d="M 19.1 6.799129 L 20.9 6.799129 L 20.9 17.40009 L 19.1 17.40009 Z M 19.1 6.799129 " transform="matrix(1.25,0,0,1.238095,0,0)"/>
<path style="fill-rule:nonzero;fill:rgb(67.058825%,68.235296%,27.450982%);fill-opacity:1;stroke-width:1;stroke-linecap:butt;stroke-linejoin:miter;stroke:rgb(67.058825%,68.235296%,27.450982%);stroke-opacity:1;stroke-miterlimit:10;" d="M 12.600334 9.499263 L 14.398778 9.499539 L 14.401349 20.099253 L 12.600674 20.101208 Z M 12.600334 9.499263 " transform="matrix(0.883875,-0.875457,0.883875,0.875457,-8.17,17.171886)"/>
<path style="fill-rule:nonzero;fill:rgb(67.058825%,68.235296%,27.450982%);fill-opacity:1;stroke-width:1;stroke-linecap:butt;stroke-linejoin:miter;stroke:rgb(67.058825%,68.235296%,27.450982%);stroke-opacity:1;stroke-miterlimit:10;" d="M 5.5 20.400541 L 16.1 20.400541 L 16.1 22.198918 L 5.5 22.198918 Z M 5.5 20.400541 " transform="matrix(1.25,0,0,1.238095,0,0)"/>
<path style="fill-rule:nonzero;fill:rgb(67.058825%,68.235296%,27.450982%);fill-opacity:1;stroke-width:1;stroke-linecap:butt;stroke-linejoin:miter;stroke:rgb(67.058825%,68.235296%,27.450982%);stroke-opacity:1;stroke-miterlimit:10;" d="M 8.200056 26.998962 L 18.79977 27.001533 L 18.800046 28.799977 L 8.200311 28.801847 Z M 8.200056 26.998962 " transform="matrix(0.883875,-0.875457,0.883875,0.875457,-19.670125,21.89002)"/>
<path style="fill-rule:nonzero;fill:rgb(67.058825%,68.235296%,27.450982%);fill-opacity:1;stroke-width:1;stroke-linecap:butt;stroke-linejoin:miter;stroke:rgb(67.058825%,68.235296%,27.450982%);stroke-opacity:1;stroke-miterlimit:10;" d="M 19.1 25.199369 L 20.9 25.199369 L 20.9 35.800331 L 19.1 35.800331 Z M 19.1 25.199369 " transform="matrix(1.25,0,0,1.238095,0,0)"/>
<path style="fill-rule:nonzero;fill:rgb(67.058825%,68.235296%,27.450982%);fill-opacity:1;stroke-width:1;stroke-linecap:butt;stroke-linejoin:miter;stroke:rgb(67.058825%,68.235296%,27.450982%);stroke-opacity:1;stroke-miterlimit:10;" d="M 25.601082 22.500743 L 27.399526 22.50102 L 27.399887 33.098523 L 25.599213 33.100478 Z M 25.601082 22.500743 " transform="matrix(0.883875,-0.875457,0.883875,0.875457,-14.906625,33.28062)"/>
<path style="fill-rule:nonzero;fill:rgb(67.058825%,68.235296%,27.450982%);fill-opacity:1;stroke-width:1;stroke-linecap:butt;stroke-linejoin:miter;stroke:rgb(67.058825%,68.235296%,27.450982%);stroke-opacity:1;stroke-miterlimit:10;" d="M 23.9 20.400541 L 34.5 20.400541 L 34.5 22.198918 L 23.9 22.198918 Z M 23.9 20.400541 " transform="matrix(1.25,0,0,1.238095,0,0)"/>
<path style="fill-rule:nonzero;fill:rgb(67.058825%,68.235296%,27.450982%);fill-opacity:1;stroke-width:1;stroke-linecap:butt;stroke-linejoin:miter;stroke:rgb(67.058825%,68.235296%,27.450982%);stroke-opacity:1;stroke-miterlimit:10;" d="M 21.199688 13.899946 L 31.801632 13.900286 L 31.799677 15.700961 L 21.199964 15.69839 Z M 21.199688 13.899946 " transform="matrix(0.883875,-0.875457,0.883875,0.875457,-3.4065,28.562486)"/>
<path style=" stroke:none;fill-rule:nonzero;fill:rgb(67.058825%,68.235296%,27.450982%);fill-opacity:1;" d="M 34.5 26.371094 C 34.5 21.175781 30.246094 16.960938 25 16.960938 C 19.753906 16.960938 15.5 21.175781 15.5 26.371094 C 15.5 31.566406 19.753906 35.78125 25 35.78125 C 30.246094 35.78125 34.5 31.566406 34.5 26.371094 Z M 34.5 26.371094 "/>
<path style=" stroke:none;fill-rule:nonzero;fill:rgb(67.058825%,68.235296%,27.450982%);fill-opacity:1;" d="M 30.625 7.304688 C 30.625 4.226562 28.105469 1.734375 25 1.734375 C 21.894531 1.734375 19.375 4.226562 19.375 7.304688 C 19.375 10.382812 21.894531 12.875 25 12.875 C 28.105469 12.875 30.625 10.382812 30.625 7.304688 Z M 30.625 7.304688 "/>
<path style=" stroke:none;fill-rule:nonzero;fill:rgb(67.058825%,68.235296%,27.450982%);fill-opacity:1;" d="M 17 13 C 17 9.921875 14.480469 7.429688 11.375 7.429688 C 8.269531 7.429688 5.75 9.921875 5.75 13 C 5.75 16.078125 8.269531 18.570312 11.375 18.570312 C 14.480469 18.570312 17 16.078125 17 13 Z M 17 13 "/>
<path style=" stroke:none;fill-rule:nonzero;fill:rgb(67.058825%,68.235296%,27.450982%);fill-opacity:1;" d="M 11.75 26.371094 C 11.75 23.292969 9.230469 20.800781 6.125 20.800781 C 3.019531 20.800781 0.5 23.292969 0.5 26.371094 C 0.5 29.449219 3.019531 31.941406 6.125 31.941406 C 9.230469 31.941406 11.75 29.449219 11.75 26.371094 Z M 11.75 26.371094 "/>
<path style=" stroke:none;fill-rule:nonzero;fill:rgb(67.058825%,68.235296%,27.450982%);fill-opacity:1;" d="M 17.5 39.371094 C 17.5 36.292969 14.980469 33.800781 11.875 33.800781 C 8.769531 33.800781 6.25 36.292969 6.25 39.371094 C 6.25 42.449219 8.769531 44.941406 11.875 44.941406 C 14.980469 44.941406 17.5 42.449219 17.5 39.371094 Z M 17.5 39.371094 "/>
<path style=" stroke:none;fill-rule:nonzero;fill:rgb(67.058825%,68.235296%,27.450982%);fill-opacity:1;" d="M 30.625 44.941406 C 30.625 41.867188 28.105469 39.371094 25 39.371094 C 21.894531 39.371094 19.375 41.867188 19.375 44.941406 C 19.375 48.019531 21.894531 50.515625 25 50.515625 C 28.105469 50.515625 30.625 48.019531 30.625 44.941406 Z M 30.625 44.941406 "/>
<path style=" stroke:none;fill-rule:nonzero;fill:rgb(67.058825%,68.235296%,27.450982%);fill-opacity:1;" d="M 43.875 39.496094 C 43.875 36.417969 41.355469 33.921875 38.25 33.921875 C 35.144531 33.921875 32.625 36.417969 32.625 39.496094 C 32.625 42.570312 35.144531 45.066406 38.25 45.066406 C 41.355469 45.066406 43.875 42.570312 43.875 39.496094 Z M 43.875 39.496094 "/>
<path style=" stroke:none;fill-rule:nonzero;fill:rgb(67.058825%,68.235296%,27.450982%);fill-opacity:1;" d="M 49.75 26.371094 C 49.75 23.292969 47.230469 20.800781 44.125 20.800781 C 41.019531 20.800781 38.5 23.292969 38.5 26.371094 C 38.5 29.449219 41.019531 31.941406 44.125 31.941406 C 47.230469 31.941406 49.75 29.449219 49.75 26.371094 Z M 49.75 26.371094 "/>
<path style=" stroke:none;fill-rule:nonzero;fill:rgb(67.058825%,68.235296%,27.450982%);fill-opacity:1;" d="M 44.25 12.875 C 44.25 9.800781 41.730469 7.304688 38.625 7.304688 C 35.519531 7.304688 33 9.800781 33 12.875 C 33 15.953125 35.519531 18.449219 38.625 18.449219 C 41.730469 18.449219 44.25 15.953125 44.25 12.875 Z M 44.25 12.875 "/>
</g>
</svg>
