<?xml version="1.0" encoding="utf-8"?>
<!-- Generator: Adobe Illustrator 27.9.3, SVG Export Plug-In . SVG Version: 9.03 Build 53313)  -->
<svg version="1.1" id="圖層_1" xmlns="http://www.w3.org/2000/svg" xmlns:xlink="http://www.w3.org/1999/xlink" x="0px" y="0px"
	 viewBox="0 0 20 20" style="enable-background:new 0 0 20 20;" xml:space="preserve">
<style type="text/css">
	.st0{fill:#1F2A2E;}
</style>
<path class="st0" d="M17.6,7.9c-1.1,0-2,0.8-2.2,1.8h-1.7c-0.1-0.7-0.4-1.4-0.8-1.9l1.3-1.3C15.1,7.1,16.3,7,17,6.2
	c0.9-0.9,0.9-2.3,0-3.2c-0.9-0.9-2.3-0.9-3.2,0c-0.8,0.8-0.9,2-0.3,2.8l-1.3,1.3c-0.5-0.4-1.2-0.7-1.9-0.8V4.6
	c1-0.2,1.8-1.1,1.8-2.2c0-1.2-1-2.2-2.2-2.2s-2.2,1-2.2,2.2c0,1.1,0.8,2,1.8,2.2v1.8C8.8,6.4,8.1,6.7,7.6,7.2L6.4,5.9
	C7,5.1,6.9,3.9,6.1,3.1c-0.9-0.9-2.3-0.9-3.2,0C2.1,4,2.1,5.4,2.9,6.3c0.8,0.8,2,0.9,2.8,0.3L7,7.8C6.5,8.3,6.3,9,6.2,9.7H4.6
	c-0.2-1-1.1-1.8-2.2-1.8c-1.2,0-2.2,1-2.2,2.2s1,2.2,2.2,2.2c1.1,0,2-0.8,2.2-1.8h1.6c0.1,0.7,0.4,1.4,0.8,1.9l-1,1
	C5,13,3.9,13,3.1,13.8c-0.9,0.9-0.9,2.3,0,3.2c0.9,0.9,2.3,0.9,3.2,0c0.8-0.8,0.9-2,0.3-2.8l1-1c0.5,0.4,1.2,0.7,1.9,0.8v1.5
	c-1,0.2-1.8,1.1-1.8,2.2c0,1.2,1,2.2,2.2,2.2s2.2-1,2.2-2.2c0-1.1-0.8-2-1.8-2.2v-1.5c0.7-0.1,1.4-0.4,1.9-0.8l1.1,1.1
	c-0.6,0.9-0.5,2.1,0.3,2.8c0.9,0.9,2.3,0.9,3.2,0c0.9-0.9,0.9-2.3,0-3.2c-0.8-0.8-2-0.9-2.8-0.3l-1.1-1.1c0.4-0.5,0.7-1.2,0.8-1.9
	h1.7c0.2,1,1.1,1.8,2.2,1.8c1.2,0,2.2-1,2.2-2.2S18.9,7.9,17.6,7.9z"/>
</svg>
