<?xml version="1.0" encoding="UTF-8"?>
<svg xmlns="http://www.w3.org/2000/svg" xmlns:xlink="http://www.w3.org/1999/xlink" width="482px" height="479px" viewBox="0 0 483 479" version="1.1">
<defs>
<filter id="alpha" filterUnits="objectBoundingBox" x="0%" y="0%" width="100%" height="100%">
  <feColorMatrix type="matrix" in="SourceGraphic" values="0 0 0 0 1 0 0 0 0 1 0 0 0 0 1 0 0 0 1 0"/>
</filter>
<mask id="mask0">
  <g filter="url(#alpha)">
<rect x="0" y="0" width="483" height="479" style="fill:rgb(0%,0%,0%);fill-opacity:0.121569;stroke:none;"/>
  </g>
</mask>
<clipPath id="clip1">
  <rect x="0" y="0" width="483" height="479"/>
</clipPath>
<g id="surface5" clip-path="url(#clip1)">
<path style="fill:none;stroke-width:1.0535;stroke-linecap:butt;stroke-linejoin:miter;stroke:rgb(12.156863%,16.470589%,18.039216%);stroke-opacity:1;stroke-miterlimit:4;" d="M 415.201087 229.30154 C 385.801145 229.30154 360.899683 248.499657 352.300336 274.901455 L 299.499725 274.901455 C 296.599492 259.001125 290.300061 244.398862 281.501909 231.601416 L 321.099444 192.000669 C 345.899554 204.599312 377.100446 200.599866 397.799689 179.799631 C 423.601627 153.998141 423.601627 112.101416 397.799689 86.299925 C 372.00165 60.498434 330.100301 60.498434 304.298363 86.299925 C 283.501666 107.10016 279.498253 138.199162 292.101013 162.998842 L 252.499579 202.599589 C 239.701912 193.801589 225.001941 187.599719 209.19879 184.598186 L 209.19879 129.498614 C 235.698499 120.899416 254.799495 95.998385 254.799495 66.598953 C 254.799495 30.10109 225.200747 0.498956 188.698353 0.498956 C 152.199858 0.498956 122.60111 30.10109 122.60111 66.598953 C 122.60111 95.998385 141.79956 120.899416 168.201815 129.498614 L 168.201815 184.598186 C 152.30121 187.498369 137.698693 193.801589 124.901025 202.599589 L 87.201896 164.998565 C 99.800757 140.198884 95.801242 108.998532 75.000647 88.299648 C 49.198709 62.498157 7.301258 62.498157 -18.500679 88.299648 C -44.298719 114.101138 -44.298719 156.001761 -18.500679 181.799354 C 2.299916 202.599589 33.399457 206.599034 58.199567 194.000391 L 95.801242 231.601416 C 86.999191 244.398862 80.801113 259.098578 77.799528 274.901455 L 28.199308 274.901455 C 19.599961 248.398307 -5.301501 229.30154 -34.701443 229.30154 C -71.199939 229.30154 -100.798687 258.899775 -100.798687 295.401536 C -100.798687 331.8994 -71.199939 361.501533 -34.701443 361.501533 C -5.301501 361.501533 19.599961 342.299517 28.199308 315.901618 L 77.90088 315.901618 C 80.801113 331.801947 87.100543 346.400313 95.898696 359.201657 L 63.298363 391.801425 C 38.498253 379.198884 7.301258 383.19833 -13.401883 403.998565 C -39.199922 429.800055 -39.199922 471.700678 -13.401883 497.498271 C 12.400055 523.299762 54.301404 523.299762 80.099444 497.498271 C 100.900039 476.701934 104.899554 445.599034 92.300692 420.799354 L 124.901025 388.199586 C 137.698693 397.001484 152.398664 403.199455 168.201815 406.200988 L 168.201815 453.800626 C 141.698208 462.399824 122.60111 487.300855 122.60111 516.700287 C 122.60111 553.19815 152.199858 582.800284 188.698353 582.800284 C 225.200747 582.800284 254.799495 553.19815 254.799495 516.700287 C 254.799495 487.300855 235.601045 462.399824 209.19879 453.800626 L 209.19879 406.200988 C 225.099395 403.300806 239.701912 397.001484 252.499579 388.199586 L 286.698159 422.401471 C 274.099298 447.201151 278.098813 478.401504 298.899408 499.100388 C 324.701346 524.901879 366.598797 524.901879 392.400734 499.100388 C 418.198774 473.298897 418.198774 431.398274 392.400734 405.600682 C 371.600139 384.800447 340.500598 380.801001 315.700488 393.399644 L 281.501909 359.201657 C 290.300061 346.400313 296.49814 331.700597 299.499725 315.901618 L 352.300336 315.901618 C 360.899683 342.400868 385.801145 361.501533 415.201087 361.501533 C 451.699583 361.501533 481.298331 331.8994 481.298331 295.401536 C 481.298331 258.899775 451.699583 229.30154 415.201087 229.30154 Z M 415.201087 229.30154 " transform="matrix(1.002075,0,0,1.002092,0,0)"/>
</g>
</defs>
<g id="surface1">
<use xlink:href="#surface5" mask="url(#mask0)"/>
</g>
</svg>
