<?xml version="1.0" encoding="utf-8"?>
<!-- Generator: Adobe Illustrator 27.9.3, SVG Export Plug-In . SVG Version: 9.03 Build 53313)  -->
<svg version="1.1" id="圖層_1" xmlns="http://www.w3.org/2000/svg" xmlns:xlink="http://www.w3.org/1999/xlink" x="0px" y="0px"
	 viewBox="0 0 198 54" style="enable-background:new 0 0 198 54;" xml:space="preserve">
<style type="text/css">
	.st0{fill:#ABAE46;}
	.st1{fill:#379DA0;}
	.st2{fill:url(#SVGID_1_);}
</style>
<g>
	<path class="st0" d="M143.5,19.9L143.5,19.9l-3.8-3.3l0,0l-14.6,0l0,0v20.2l4.4,0v-6.5l10.3,0l0.1,0l3.6-3.5l0,0L143.5,19.9z
		 M139.3,21.9v3.3l-1.3,1.4h-8.5v-6.2l8.4,0L139.3,21.9z"/>
	<polygon class="st0" points="196.1,36.7 189.2,29.8 195.9,23 190.7,23 184.3,29.3 184.3,17.1 184.3,17.1 184.3,17.1 179.6,17.1 
		179.6,36.7 179.6,36.7 179.6,36.7 184.3,36.7 184.3,30.5 190.7,36.7 	"/>
	<path class="st0" d="M177.8,36.6l0-11.9l-3.2-3.8l-11.9,0l2.9,3.6l5.5,0c0.7,0,1.3,0.2,1.8,0.7c0.4,0.4,0.4,0.8,0.4,1.1l0,0.8
		l-0.5,0c-4.7,0-7.3,0-7.7,0c-1.1,1-2.2,2-3,2.7c0,0.5,0,1,0,1.5l0,0c0,0.8,0,1.6,0,2.4c0.4,0.4,2.2,2.3,2.5,2.7c1,0,2.8,0,6,0
		l0.1,0l2.5-2.5v2.5L177.8,36.6z M173.3,33.1h-6.7v-3.2h6.7V33.1z"/>
	<g>
		<rect x="84.2" y="16.7" class="st1" width="4" height="2.1"/>
		<rect x="84.1" y="21.2" class="st1" width="4.1" height="15.6"/>
	</g>
	<path class="st1" d="M104.9,20.8l-3.9,0l0,11.6h-5.3l-1.4-1.4l0-10.2l-3.9,0c0,1.2,0,8.5,0,12.3l3.5,3.7l5.2,0l1.9-2.9v2.9h1.4
		l2.4-3.2V20.8z"/>
	<path class="st1" d="M54.7,32.9l-0.7-0.9v-1.4l11.8,0l0-6.3L62.7,21l-9.2,0l-3.3,3.4l0,8.5l3.8,3.9l9.2,0l2.8-3.8L54.7,32.9z
		 M53.9,26.4l1.6-2h5.5l1.7,2v0.9h-8.9L53.9,26.4z"/>
	<path class="st0" d="M149.5,32.9l-0.7-0.9v-1.4l11.8,0l0-6.3l-3.1-3.4l-9.2,0l-3.3,3.4l0,8.5l3.8,3.9l9.2,0l2.8-3.8L149.5,32.9z
		 M148.8,26.4l1.6-2h5.5l1.7,2v0.9h-8.9L148.8,26.4z"/>
	<polygon class="st1" points="41.3,29.4 41.3,29.4 44.2,29.4 44.2,33.2 36.1,33.2 33.7,30.8 33.7,20.5 45,20.5 48.9,16.8 33.7,16.8 
		33.7,16.8 29.8,21.2 29.8,21.2 29.8,33.2 29.8,33.2 33.4,36.8 33.4,36.8 45.8,36.8 45.8,36.8 48.1,33.9 48.1,25.8 39,25.8 	"/>
	<polygon class="st1" points="77.8,25.7 77.8,36.7 81.9,36.7 81.9,23.8 79,21 72.9,21 70.8,24.8 70.8,21 68,21 68,36.7 72.1,36.7 
		72.1,24.9 77.1,24.9 	"/>
	<path class="st1" d="M117.3,33.2l-8.6,0l-2.5,3.5l13.3,0l2.7-3.1c0-1.5,0-2.9,0-4.4l-3-2.4H112l-0.7-0.7v-1.1l0.7-0.7l8.3,0
		l2.5-3.5l-12.6,0l-3.2,3c0,1.2,0,2.5,0,4l3.3,2.7l7,0l0.7,0.7v1.3L117.3,33.2z"/>
</g>
<linearGradient id="SVGID_1_" gradientUnits="userSpaceOnUse" x1="1.9132" y1="37.4866" x2="20.2338" y2="20.5874">
	<stop  offset="0" style="stop-color:#0F3358"/>
	<stop  offset="0.35" style="stop-color:#33A4A7"/>
	<stop  offset="1" style="stop-color:#B0B445"/>
</linearGradient>
<path class="st2" d="M9.4,21.5c0.8-0.5,1.8-0.8,2.8-0.8l8.3,0c0,0,0,0,0,0H22c0,0,0,0,0,0l4.4-4.6c0.1-0.1,0.2-0.3,0.1-0.5
	c-0.1-0.2-0.3-0.2-0.5-0.2l-0.6,0.1l-0.3,0l-10.1,0c-1.6,0-3.2,0-4.5,0.2c-1.6,0.2-3,0.8-4.4,1.9c0,0,0,0,0,0l-0.5,0.4
	c-1,0.8-1.9,1.8-2.5,2.9c-1.2,2.1-1.8,4.5-1.6,6.9c0.1,1,0.2,1.8,0.4,2.5c0.6,2.2,1.8,4,3.4,5.5L5.5,36c0,0,0,0,0,0l0,0
	c0.2,0.2,0.6,0.4,0.7,0.5c0,0,0,0,0,0c0.1,0.1,0.2,0.1,0.3,0.2l0,0c0.3,0.2,0.7,0.4,1,0.6c0.9,0.5,1.9,0.8,3,1l0.3,0
	c0.5,0.1,1.5,0.2,2.6,0.2c0.7,0,1.3,0,1.9-0.1c0.3,0,0.6-0.1,1-0.2c0.6-0.1,1.2-0.3,1.7-0.5c0,0,0,0,0.1,0c1.7-0.7,3.2-1.8,4.5-3.2
	c0,0,0,0,0,0l1.1-1.2c0.1-0.1,0.1-0.2,0.1-0.3l0-6.2c0-0.1,0-0.2-0.1-0.3c-0.1-0.1-0.2-0.1-0.3-0.1l-6.8,0l-0.3-0.2l-0.7-0.6
	c0,0,0,0,0,0l-1.4-1.3c0,0,0,0,0,0c-0.2-0.2-0.4-0.1-0.6,0l-6.2,6.5c-0.3-0.4-0.5-0.9-0.6-1.3c-0.3-1.1-0.4-2.2-0.3-3.4
	C6.8,24.1,7.8,22.5,9.4,21.5z M5.3,28.7c0.2,1,0.6,2,1.3,3.1C6.7,32,7,32.4,7.3,32.6c0,0,0,0,0,0c0.5,0.5,1,0.8,1.4,1.1
	c1,0.6,2.2,0.9,3.5,1c0.8,0,1.8,0.1,2.7,0c2.2-0.2,3.8-1.3,4.8-3.1c0.2-0.3,0.3-0.6,0.3-1c0-0.1,0-0.1,0-0.2c0-0.1,0-0.2-0.1-0.3
	C20,30,19.9,30,19.8,30L14,30c0,0,0,0,0,0c-0.2,0-0.4,0.2-0.4,0.4v0.4c0,0.2,0.2,0.4,0.4,0.4l4.6,0C18.3,31.7,18.1,32,18,32
	c0,0,0,0,0,0c-0.7,0.8-1.6,1.2-2.7,1.4c-0.5,0.1-1.1,0.1-1.5,0.1l-0.1,0c-0.8,0-1.5,0-2.3-0.2c-1.2-0.3-2.2-0.8-2.9-1.6c0,0,0,0,0,0
	l0,0l5.7-6c0,0,0,0,0,0l1.8,1.8c0.1,0.1,0.2,0.1,0.3,0.1l6.5,0l0,1.6l0,3.5l-1,1.1c-0.9,0.9-1.8,1.7-2.9,2.3c-1,0.6-2,0.9-3,1
	l-0.1,0c-0.4,0.1-0.9,0.1-1.3,0.2c-0.8,0-1.4,0-2.1,0c-2.2-0.1-4.1-0.8-5.6-2.1c-0.2-0.2-0.5-0.4-0.7-0.6c-0.1-0.1-0.1-0.1-0.2-0.2
	c0,0,0,0,0,0c0,0,0,0,0,0c-0.1-0.1-0.6-0.6-0.7-0.8c0,0,0,0,0,0c-0.1-0.2-0.3-0.4-0.4-0.6c-0.9-1.3-1.5-2.8-1.8-4.5
	c-0.1-1-0.1-2,0-3.1C3,23.6,3.6,22,4.7,20.6c0.4-0.5,0.7-0.9,1.1-1.3c0.3-0.3,0.7-0.6,1-0.8C8,17.6,9.4,17,11,16.9
	c0.4-0.1,0.9-0.1,1.4-0.1l0,0c0.1,0,0.3,0,0.4,0l11.4,0l-2.6,2.6c-2.2,0-9.1,0-9.6,0c-1.8,0.1-3.3,0.8-4.5,2
	c-0.2,0.2-0.3,0.4-0.5,0.6c-0.9,1.1-1.5,2.4-1.7,3.8C5.1,26.6,5.1,27.6,5.3,28.7z M6.7,36.7L6.7,36.7L6.7,36.7L6.7,36.7z"/>
</svg>
